<?xml version="1.0" encoding="UTF-8"?>
<svg version="1.1" viewBox="0 0 1600 1600" width="1280" height="1280" xmlns="http://www.w3.org/2000/svg">
<path transform="translate(46.4 86.7)" d="m0 0c1.22-0.00574 1.22-0.00574 2.46-0.0116 2.7-0.0103 5.4-0.00635 8.1-0.00237 1.94-0.00435 3.89-0.00954 5.83-0.0155 5.27-0.0134 10.5-0.014 15.8-0.0114 4.41 0.00107 8.82-0.00382 13.2-0.00861 10.4-0.0111 20.8-0.0115 31.3-0.00549 10.7 0.00603 21.4-0.00624 32.1-0.0276 9.22-0.0177 18.4-0.0236 27.7-0.0204 5.5 0.0018 11-7.36e-4 16.5-0.0147 5.18-0.0127 10.4-0.0105 15.5 0.00241 1.89 0.00234 3.78-2.92e-4 5.66-0.00862 29.4-0.12 54.4 7.87 77.4 26.4 0.905 0.692 0.905 0.692 1.83 1.4 4.29 3.37 7.73 7.4 11.2 11.6 0.691 0.83 1.38 1.66 2.09 2.52 9 11.3 15.9 24 20 37.9 0.286 0.959 0.573 1.92 0.868 2.91 4.97 16.9 9.4 33.9 13.9 50.9 1.38 5.15 2.75 10.3 4.13 15.4 0.561 2.09 1.12 4.18 1.68 6.28 0.278 1.04 0.557 2.08 0.843 3.15 0.845 3.15 1.69 6.31 2.53 9.46 5.11 19.1 10.3 38.2 15.4 57.3 0.818 3.02 1.64 6.05 2.45 9.07 0.391 1.45 0.782 2.89 1.17 4.34 0.926 3.42 1.85 6.84 2.77 10.3 1.73 6.39 3.46 12.8 5.2 19.2 0.33 1.21 0.659 2.42 0.999 3.67 0.617 2.27 1.24 4.53 1.86 6.79 0.27 0.993 0.539 1.99 0.817 3.01 0.237 0.865 0.474 1.73 0.717 2.62 0.502 2.21 0.502 2.21 0.502 5.21 18.9 0.158 37.9 0.302 56.8 0.438 0.776 0.00558 1.55 0.0112 2.35 0.0169 53.4 0.383 107 0.621 160 0.799 0.762 0.00255 1.52 0.0051 2.31 0.00772 23.7 0.0793 47.4 0.155 71.1 0.231 26.5 0.0844 53 0.169 79.5 0.258 1.16 0.00387 1.16 0.00387 2.35 0.00782 47.7 0.159 95.4 0.374 143 0.727 68.2 0.503 136 0.741 205 0.968 10.9 0.0364 21.8 0.0733 32.7 0.111 1.15 0.00394 1.15 0.00394 2.32 0.00796 3.1 0.0106 6.19 0.0212 9.29 0.0319 14.7 0.0505 29.5 0.101 44.2 0.151 0.77 0.00261 1.54 0.00522 2.33 0.00791 36.7 0.124 73.5 0.245 110 0.354 24.1 0.0716 48.2 0.149 72.4 0.234 15.1 0.0533 30.2 0.101 45.3 0.139 9.74 0.0253 19.5 0.0576 29.2 0.0955 5.57 0.0215 11.1 0.0398 16.7 0.0495 5.08 0.0089 10.2 0.0268 15.2 0.0519 1.83 0.00742 3.65 0.0116 5.48 0.012 29.5 0.013 54.7 7.23 76.1 28.1 17.7 18.7 28.2 44.6 27.6 70.4-0.579 10.6-3.38 21-5.88 31.3-0.837 3.48-1.65 6.96-2.46 10.4-1.29 5.52-2.59 11-3.9 16.5-3.1 13.1-6.13 26.2-9.15 39.3-0.525 2.27-1.05 4.54-1.57 6.81-0.8 3.46-1.6 6.93-2.4 10.4-1.91 8.25-3.82 16.5-5.73 24.8-0.27 1.17-0.54 2.33-0.819 3.53-0.542 2.34-1.08 4.67-1.63 7.01-5.22 22.5-10.4 45-15.6 67.6-6.63 28.9-13.3 57.8-20 86.8-5.99 25.8-12 51.7-17.9 77.5-3.12 13.6-6.26 27.3-9.39 40.9-0.205 0.891-0.41 1.78-0.621 2.7-2.7 11.7-5.4 23.4-8.12 35.2-1.11 4.78-2.21 9.56-3.31 14.3-1.03 4.47-2.06 8.94-3.1 13.4-0.379 1.64-0.757 3.27-1.13 4.91-6.86 29.9-6.86 29.9-12.5 41.3-0.34 0.7-0.68 1.4-1.03 2.12-6.96 14-16.8 27.4-29.2 37.1-0.808 0.633-1.62 1.27-2.45 1.92-14.6 11-30 18.3-47.8 22.4-1.04 0.239-1.04 0.239-2.11 0.483-11.3 2.39-22.8 2.35-34.3 2.32-1.56 1.33e-4 -3.12 7.08e-4 -4.68 0.00168-4.28 0.0014-8.56-0.00342-12.8-0.00928-4.66-0.00525-9.32-0.00463-14-0.00475-8.16-0.00101-16.3-0.0057-24.5-0.0128-12.1-0.0106-24.3-0.0153-36.4-0.0188-20.4-0.00598-40.9-0.0163-61.3-0.0289-29.2-0.0178-58.4-0.0272-87.5-0.0349-11.7-0.00311-23.4-0.00649-35.1-0.00988-1.95-5.62e-4 -1.95-5.62e-4 -3.94-0.00114-30.3-0.00877-60.6-0.0201-90.9-0.0323-2.05-8.28e-4 -4.11-0.00165-6.16-0.00248-31.6-0.0127-63.2-0.0267-94.8-0.043-1.37-7.04e-4 -2.75-0.00141-4.12-0.00211-6.17-0.00317-12.3-0.00634-18.5-0.00952-2.74-0.00141-5.48-0.00282-8.21-0.00422-2.05-0.00106-4.1-0.00211-6.15-0.00317-45.2-0.0233-90.4-0.0397-136-0.0487-6.38-0.00128-12.8-0.00265-19.1-0.00408-1.88-4.22e-4 -1.88-4.22e-4 -3.81-8.53e-4 -20.2-0.00476-40.4-0.0169-60.6-0.032-20.3-0.0151-40.6-0.0231-60.9-0.0238-12.1-6.54e-4 -24.1-0.00694-36.2-0.0212-8.06-0.00901-16.1-0.0107-24.2-0.00661-4.59 0.00215-9.19 0.00115-13.8-0.00875-4.18-0.00896-8.37-0.00856-12.6-9.51e-4 -1.5 0.00113-3-0.00104-4.49-0.00708-19.8-0.0751-37.8 1.8-52.7 16.1-9.39 9.86-14 23.1-14.5 36.6 0.406 11.6 3.76 21.5 9.38 31.6 0.674 1.33 1.34 2.66 2 4h2c0.959 1.02 0.959 1.02 1.94 2.06 10 10.3 24.3 14.8 38.4 15.1 1.64 0.0207 3.28 0.0361 4.92 0.0475 0.915 0.00996 1.83 0.0199 2.77 0.0302 3.09 0.0321 6.18 0.0571 9.26 0.0817 2.26 0.021 4.51 0.0421 6.77 0.0635 6.95 0.0635 13.9 0.117 20.8 0.169 2.03 0.0153 4.06 0.0311 6.09 0.047 77.6 0.61 155 0.472 233 0.39 1.63-0.00172 1.63-0.00172 3.3-0.00348 1.64-0.00173 1.64-0.00173 3.31-0.0035 25-0.0262 50-0.0409 75-0.0541 5.85-0.00311 11.7-0.00633 17.6-0.00954 1.16-6.4e-4 2.33-0.00128 3.53-0.00194 2.36-0.0013 4.72-0.0026 7.07-0.00389 2.37-0.0013 4.73-0.0026 7.1-0.0039 27.6-0.0151 55.2-0.0323 82.8-0.0509 1.8-0.00121 1.8-0.00121 3.64-0.00244 39.2-0.0264 78.5-0.0632 118-0.104 40.6-0.0421 81.2-0.0709 122-0.0839 5.73-0.00185 11.5-0.00387 17.2-6e-3 1.69-6.24e-4 1.69-6.24e-4 3.41-0.00126 18.1-0.0071 36.2-0.0285 54.2-0.0555 18.1-0.0268 36.2-0.0394 54.3-0.0371 10.7 8.68e-4 21.5-0.00948 32.2-0.0358 7.16-0.0165 14.3-0.0185 21.5-0.00868 4.08 0.00517 8.16 0.00403 12.2-0.0149 3.71-0.0171 7.43-0.0155 11.1 5.35e-4 1.96 0.00375 3.91-0.0121 5.87-0.0288 13.1 0.0967 23.4 3.79 33.2 12.5 10.1 10.4 14.3 21.6 14.3 35.9-0.215 12.7-4.97 22.4-13.7 31.5-5.09 4.85-9.98 8.22-16.6 10.5 0.671 2.92 1.58 5.64 2.67 8.43 16.8 43.8 17.8 89.8-1.44 133-5.6 12.1-12.7 23.4-20.7 34-0.421 0.558-0.843 1.12-1.28 1.69-1.02 1.31-2.12 2.57-3.22 3.81h-2c-0.214 0.536-0.428 1.07-0.648 1.62-13.8 24.3-50.2 41.2-75.7 48.2-43.5 11.2-88.4 7.35-128-15.2-11.2-6.68-21.4-14.6-30.8-23.6l-1.44-1.35c-12.1-11.5-21.5-24.1-29.6-38.6-0.348-0.622-0.696-1.24-1.05-1.89-20.4-37-23.9-81-13.1-121 0.224-0.843 0.448-1.69 0.678-2.55 1.54-5.45 3.5-10.7 5.62-15.9 0.278-0.69 0.556-1.38 0.843-2.09 0.68-1.69 1.36-3.37 2.05-5.06-31.8-0.023-63.6-0.0406-95.4-0.0511-3.78-0.00125-7.56-0.00254-11.3-0.00387-0.752-2.62e-4 -1.5-5.25e-4 -2.28-7.95e-4 -12.1-0.00432-24.2-0.0122-36.2-0.0214-12.5-0.00945-24.9-0.0149-37.4-0.0169-6.97-0.00123-13.9-0.00415-20.9-0.0116-30.5-0.0318-61 0.096-91.5 1.11 0.412 1.02 0.825 2.04 1.25 3.09 0.546 1.36 1.09 2.71 1.64 4.07 0.271 0.669 0.542 1.34 0.822 2.03 2.17 5.4 3.98 10.8 5.48 16.4 0.247 0.926 0.494 1.85 0.749 2.81 10.6 41.3 4.74 86.7-16.9 124-5.37 8.86-11.4 17-18.1 25-0.648 0.79-1.3 1.58-1.96 2.39-3.96 4.7-8.33 8.66-13 12.6-0.828 0.739-1.66 1.48-2.51 2.24-13.8 12-29.4 21.2-46.5 27.8-0.725 0.281-1.45 0.561-2.2 0.851-15.1 5.71-31.6 9.66-47.8 10.1-0.737 0.0258-1.47 0.0516-2.23 0.0781-27.6 0.85-53.9-3.86-78.8-16.1-0.615-0.296-1.23-0.592-1.86-0.897-16.2-7.9-30.3-18.5-43.1-31.1-0.975-0.899-0.975-0.899-1.97-1.82-30.3-28.5-43.7-70.3-46.3-111-0.635-22.8 3.26-54.1 16.2-73.5-0.828 0.00444-1.66 0.00888-2.51 0.0135-7.91 0.0405-15.8 0.0708-23.7 0.0902-4.06 0.0103-8.13 0.0242-12.2 0.0473-48 0.264-92.1-4.71-129-39.2-1.22-1.03-2.45-2.05-3.69-3.06-26.8-23-41.5-60.8-44.2-95.2-2.33-40 11.7-77.9 38.1-108 24.4-26.8 57.5-43.9 93.8-47.1 1.58-0.0219 3.16-0.0284 4.73-0.0208 0.802 3e-3 1.6 0.00599 2.43 0.00908 0.606 0.00385 1.21 0.0077 1.84 0.0117-10.4-39.2-20.9-78.4-31.5-118-1.04-3.85-2.09-7.71-3.13-11.6-0.21-0.777-0.421-1.55-0.637-2.36-3.7-13.7-7.37-27.3-11-41-0.404-1.51-0.404-1.51-0.816-3.04-1.37-5.09-2.73-10.2-4.1-15.3-11.5-42.9-11.5-42.9-23.3-85.8-3.17-11.4-6.23-22.9-9.26-34.4-3.13-11.9-6.3-23.7-9.49-35.5-0.227-0.843-0.455-1.69-0.689-2.55-1.44-5.32-2.87-10.6-4.31-16-2.38-8.82-4.76-17.6-7.14-26.5-0.271-1.01-0.543-2.01-0.822-3.05-4.09-15.2-8.17-30.3-12.2-45.5-0.264-0.982-0.528-1.96-0.8-2.98-1.06-3.95-2.12-7.9-3.18-11.9-8.17-30.4-16.4-60.9-24.6-91.3-0.192-0.708-0.384-1.42-0.583-2.14-2.24-8.24-4.48-16.5-6.72-24.7-17.2-63.3-17.2-63.3-23-85.3-4.81-18.2-9.7-36.4-14.6-54.7-0.194-0.721-0.389-1.44-0.589-2.18-0.786-2.92-1.57-5.83-2.36-8.75-2.29-8.49-4.57-17-6.82-25.5-1.53-5.76-3.07-11.5-4.61-17.3-0.634-2.37-1.26-4.75-1.89-7.12-0.862-3.28-1.74-6.55-2.62-9.82-0.245-0.949-0.49-1.9-0.743-2.88-2.01-7.34-4.42-13.2-10.5-18-5.02-2.45-10.5-2.14-15.9-2.15-1.85-0.0247-1.85-0.0247-3.74-0.05-3.46-0.0411-6.92-0.0639-10.4-0.0787-2.96-0.0161-5.93-0.048-8.89-0.0797-20.2-0.213-40.4-0.192-60.6-0.167-3.86 0.00472-7.73 0.00862-11.6 0.0124-11.6 0.0128-23.2 0.0319-34.8 0.0818-4.89 0.0195-9.78 0.031-14.7 0.041-2.29 0.00664-4.57 0.0169-6.86 0.031-38.9 0.238-38.9 0.238-53.5-13.5-4.1-4.5-7.28-9.25-10-14.7-0.414-0.819-0.828-1.64-1.25-2.48-3.92-9.03-4.68-20-1.64-29.4 5.17-12.8 14.1-24.2 26.7-30.3 6.3-2.24 12-3.08 18.7-3.05zm369 383c1.08 5.58 2.21 11.1 3.68 16.6 0.324 1.22 0.647 2.43 0.981 3.69 0.354 1.32 0.709 2.64 1.06 3.96 0.38 1.42 0.76 2.85 1.14 4.27 1.03 3.87 2.07 7.74 3.11 11.6 0.879 3.28 1.76 6.56 2.63 9.83 8.29 31 16.6 62 25 92.9 0.24 0.89 0.481 1.78 0.728 2.7 1.18 4.37 2.36 8.75 3.55 13.1 2.11 7.78 4.2 15.6 6.28 23.4 0.923 3.47 1.85 6.93 2.78 10.4 0.436 1.63 0.869 3.27 1.3 4.9 0.592 2.24 1.19 4.48 1.79 6.72 0.336 1.27 0.672 2.53 1.02 3.84 0.847 3.2 0.847 3.2 2.96 6.07 2.45 0.295 4.66 0.391 7.11 0.361 1.11 0.00384 1.11 0.00384 2.24 0.00777 2.5 0.00496 4.99-0.0116 7.49-0.028 1.78-8.46e-4 3.57-3.72e-4 5.35 0.00133 4.85 8.63e-4 9.71-0.0168 14.6-0.0377 5.07-0.0187 10.1-0.0205 15.2-0.0241 9.6-0.00934 19.2-0.034 28.8-0.064 10.9-0.0335 21.9-0.05 32.8-0.0651 22.5-0.0314 45-0.0842 67.5-0.151 0.939-3.78 0.971-6.77 0.453-10.6-0.22-1.68-0.22-1.68-0.445-3.4-0.169-1.22-0.337-2.45-0.511-3.71-0.258-1.95-0.258-1.95-0.522-3.93-0.475-3.57-0.959-7.14-1.45-10.7-0.516-3.8-1.02-7.61-1.53-11.4-0.972-7.27-1.95-14.5-2.94-21.8-1.19-8.82-2.37-17.6-3.56-26.5-0.423-3.15-0.846-6.31-1.27-9.46-0.104-0.779-0.209-1.56-0.316-2.36-0.736-5.49-1.47-11-2.21-16.5-2.06-15.3-4.09-30.5-6.09-45.8-0.141-1.08-0.141-1.08-0.285-2.19-0.809-6.19-1.62-12.4-2.42-18.6-0.473-3.66-0.949-7.32-1.42-11-0.138-1.08-0.276-2.15-0.418-3.26-0.128-0.982-0.256-1.96-0.388-2.98-0.11-0.849-0.219-1.7-0.332-2.57-0.337-2.17-0.667-4.21-1.36-6.29-3.21-1.6-6.69-1.13-10.2-1.12-1.29-0.00128-1.29-0.00128-2.6-0.00259-2.9-0.00165-5.79 0.00387-8.69 0.00932-2.07 2.82e-4 -4.14 1.24e-4 -6.21-4.43e-4 -5.63-2.88e-4 -11.3 0.00561-16.9 0.0126-5.88 0.00624-11.8 0.00684-17.6 0.00803-11.1 0.00311-22.3 0.0113-33.4 0.0213-12.7 0.0112-25.4 0.0167-38 0.0217-26.1 0.0105-52.2 0.0281-78.3 0.0503zm306 1c1.27 13.5 2.84 27 4.65 40.5 0.259 1.94 0.518 3.89 0.776 5.83 0.69 5.18 1.38 10.4 2.08 15.5 0.726 5.42 1.45 10.8 2.17 16.3 0.89 6.67 1.78 13.3 2.67 20 1.85 13.8 3.68 27.6 5.5 41.4 0.384 2.92 0.769 5.84 1.15 8.75 0.124 0.941 0.248 1.88 0.376 2.85 0.246 1.87 0.492 3.73 0.738 5.6 0.594 4.5 1.19 9.01 1.78 13.5 0.551 4.2 1.1 8.4 1.66 12.6 0.201 1.52 0.4 3.04 0.599 4.56 0.493 13.7 0.493 13.7 4.85 25.6 2.29 0.0993 4.58 0.126 6.87 0.127 0.727 0.00156 1.45 0.00312 2.2 0.00473 2.45 0.00401 4.91 8.19e-4 7.36-0.00232 1.75 0.00135 3.5 0.00313 5.26 0.00531 4.77 0.00458 9.55 0.00278 14.3-3.79e-4 4.98-0.00252 9.97-1.86e-4 14.9 0.00139 8.37 0.00182 16.7-5.85e-4 25.1-0.00534 9.69-0.00544 19.4-0.00368 29.1 0.00183 8.3 0.00453 16.6 0.00518 24.9 0.00256 4.97-0.00156 9.93-0.00176 14.9 0.00154 4.67 0.00288 9.34 9.04e-4 14-0.00489 1.72-0.00133 3.44-9.33e-4 5.16 0.00126 2.34 0.00271 4.67-6.68e-4 7.01-0.00568 1.31-3.77e-4 2.62-7.54e-4 3.97-0.00114 2.79 0.206 2.79 0.206 3.9-1.13 0.0979-2.72 0.13-5.41 0.12-8.13 8.54e-4 -0.862 0.00171-1.72 0.00259-2.61 0.00166-2.91-0.00387-5.83-0.00932-8.74-2.82e-4 -2.08-1.24e-4 -4.16 4.43e-4 -6.24 2.88e-4 -5.66-0.00561-11.3-0.0126-17-0.00623-5.91-0.00684-11.8-0.00803-17.7-0.00311-11.2-0.0113-22.4-0.0213-33.6-0.0112-12.7-0.0167-25.5-0.0217-38.2-0.0105-26.2-0.0281-52.5-0.0503-78.7-31-0.716-62-1.1-93-1.1-1.26 9.65e-5 -1.26 9.65e-5 -2.55 1.95e-4 -10.3 0.00164-20.6 0.0119-31 0.0254-8.92 0.0115-17.8 0.0167-26.8 0.0217-18.3 0.0103-36.5 0.0277-54.8 0.0503zm301 1v212c29.3 0.0619 58.7 0.124 88.9 0.188 9.27 0.0273 18.5 0.0546 28.1 0.0828 8.28 0.01 8.28 0.01 16.6 0.0161 3.7 0.0028 7.4 0.0141 11.1 0.0304 4.71 0.0205 9.43 0.0268 14.1 0.0225 1.73 8.94e-4 3.47 0.00689 5.2 0.0184 2.33 0.0148 4.67 0.0114 7 0.00312 1.31 0.00277 2.62 0.00553 3.97 0.00838 1.5-0.183 1.5-0.183 3.03-0.369 2.25-3.38 2.51-5.34 3.05-9.33 0.0886-0.646 0.177-1.29 0.268-1.96 0.296-2.17 0.58-4.35 0.865-6.52 0.21-1.56 0.421-3.13 0.633-4.69 0.576-4.27 1.14-8.54 1.71-12.8 0.598-4.51 1.2-9.02 1.81-13.5 1.43-10.7 2.85-21.4 4.27-32.1 0.539-4.07 1.08-8.15 1.62-12.2 3.3-24.8 6.58-49.7 9.83-74.5 0.626-4.79 1.25-9.57 1.89-14.4 0.384-2.91 0.766-5.82 1.15-8.73 0.258-1.96 0.519-3.93 0.78-5.89 0.227-1.74 0.227-1.74 0.459-3.52 0.132-1 0.264-2.01 0.401-3.04 0.265-2.6 0.331-5.13 0.279-7.74-30-0.804-60.1-1.1-90.1-1.1-0.775-1.85e-5 -1.55-3.7e-5 -2.35-5.6e-5 -13.2 5.11e-4 -26.5 0.0195-39.7 0.0352-24.7 0.0206-49.4 0.0412-74.8 0.0625zm302 1c-1.47 3.38-2.35 6.43-2.83 10.1-0.2 1.5-0.2 1.5-0.405 3.03-0.138 1.09-0.277 2.17-0.419 3.29-0.228 1.73-0.228 1.73-0.461 3.49-0.503 3.83-0.997 7.66-1.49 11.5-0.353 2.7-0.708 5.41-1.06 8.11-0.648 4.94-1.29 9.88-1.94 14.8-1.15 8.86-2.32 17.7-3.5 26.6-0.171 1.29-0.343 2.58-0.52 3.91-0.345 2.6-0.69 5.2-1.04 7.79-0.864 6.51-1.72 13-2.58 19.5-1.13 8.56-2.27 17.1-3.4 25.7-0.784 5.91-1.57 11.8-2.35 17.7-0.324 2.45-0.648 4.9-0.972 7.34-0.877 6.62-1.75 13.2-2.61 19.9-0.292 2.24-0.586 4.47-0.882 6.71-0.446 3.38-0.886 6.76-1.32 10.1-0.138 1.03-0.276 2.07-0.418 3.13-0.12 0.941-0.241 1.88-0.365 2.85-0.109 0.83-0.217 1.66-0.329 2.52-0.035 0.625-0.0701 1.25-0.106 1.89 1.83 1.83 4.76 1.13 7.22 1.13 0.657 0.00156 1.31 0.00312 1.99 0.00473 2.22 0.00401 4.43 8.2e-4 6.65-0.00232 1.58 0.00135 3.17 0.00313 4.75 0.00531 4.31 0.00458 8.62 0.00278 12.9-3.79e-4 4.5-0.00252 9.01-1.86e-4 13.5 0.00139 7.57 0.00182 15.1-5.85e-4 22.7-0.00534 8.76-0.00544 17.5-0.00368 26.3 0.00183 7.51 0.00453 15 0.00518 22.5 0.00256 4.49-0.00156 8.98-0.00176 13.5 0.00154 4.22 0.00288 8.44 8.98e-4 12.7-0.00489 1.55-0.00133 3.1-9.36e-4 4.66 0.00126 2.11 0.00272 4.22-6.76e-4 6.34-0.00568 1.18-3.77e-4 2.37-7.54e-4 3.59-0.00114 2.72 0.0629 2.72 0.0629 4.76-1.13 0.706-1.92 0.706-1.92 1.2-4.29 0.323-1.39 0.323-1.39 0.653-2.81 0.23-1.03 0.459-2.05 0.696-3.11 0.247-1.07 0.494-2.15 0.749-3.25 0.826-3.6 1.64-7.19 2.45-10.8 0.584-2.55 1.17-5.11 1.76-7.66 1.23-5.36 2.45-10.7 3.67-16.1 2.52-11.1 5.07-22.2 7.61-33.2 0.844-3.68 1.69-7.36 2.53-11 3.33-14.6 6.7-29.1 10.1-43.6 1.32-5.64 2.63-11.3 3.95-16.9 1.29-5.53 2.58-11.1 3.88-16.6 0.812-3.46 1.62-6.92 2.42-10.4 0.376-1.61 0.755-3.22 1.14-4.84 1.92-8.11 3.64-16 4.2-24.4-13.3-0.177-26.5-0.343-39.8-0.5-1-0.0119-2.01-0.0238-3.04-0.036-33.1-0.389-66.2-0.555-99.3-0.527-1.52 0.00128-1.52 0.00128-3.06 0.00259-12.3 0.0112-24.5 0.0309-36.8 0.0599zm-827 304c8.69 32.5 17.4 64.9 26.1 97.4 1.08 4.01 2.15 8.01 3.23 12 3.04 11.3 6.1 22.7 9.16 34 1.02 3.76 2.03 7.52 3.04 11.3 1.25 4.64 2.5 9.29 3.76 13.9 0.468 1.73 0.933 3.45 1.4 5.18 4.29 18.5 4.29 18.5 16.3 32.5 5.36 2.82 10.3 3.84 16.3 3.84 1.05 0.00137 2.1 0.00275 3.18 0.00417 1.14-0.0036 2.28-0.00719 3.46-0.0109 1.82 2.19e-4 1.82 2.19e-4 3.67 4.43e-4 3.31-5.76e-4 6.62-0.00558 9.93-0.0126 3.46-0.00626 6.92-0.00684 10.4-0.00803 6.55-0.00311 13.1-0.0113 19.7-0.0213 7.46-0.0112 14.9-0.0167 22.4-0.0217 15.3-0.0104 30.7-0.028 46-0.0503-0.559-10.1-1.52-20-2.86-30-0.19-1.44-0.38-2.88-0.57-4.32-0.513-3.89-1.03-7.77-1.55-11.7-0.44-3.29-0.877-6.59-1.31-9.88-1.56-11.7-3.13-23.5-4.7-35.2-0.193-1.44-0.193-1.44-0.391-2.91-3.09-23-6.19-46-9.29-68.9-2.13-15.7-4.23-31.4-6.31-47.1-3.95-0.734-7.68-1.13-11.7-1.13-1.11-0.00282-2.22-0.00564-3.37-0.00854-1.81 0.00304-1.81 0.00304-3.65 0.00613-1.28-0.00175-2.56-0.0035-3.88-0.00531-3.51-0.00455-7.02-0.00279-10.5 3.79e-4 -3.7 0.00255-7.41 1.78e-4 -11.1-0.00139-6.25-0.00182-12.5 5.75e-4 -18.7 0.00534-7.14 0.00539-14.3 0.00372-21.4-0.00183-6.18-0.0046-12.4-0.00515-18.5-0.00256-3.67 0.00153-7.34 0.00185-11-0.00154-19-0.0152-38 0.342-57.1 1.14zm265 0c-0.173 5.28 0.172 10.3 0.879 15.5 0.0948 0.714 0.19 1.43 0.287 2.16 0.317 2.38 0.642 4.75 0.966 7.13 0.231 1.72 0.462 3.45 0.693 5.17 0.629 4.69 1.26 9.38 1.9 14.1 0.67 4.95 1.33 9.9 2 14.8 1.14 8.5 2.29 17 3.44 25.5 1.75 12.9 3.49 25.9 5.23 38.8 2.48 18.5 4.97 37 7.46 55.4 0.273 2.03 0.547 4.06 0.82 6.09 0.375 2.78 0.75 5.56 1.12 8.35 0.108 0.806 0.217 1.61 0.329 2.44 0.199 1.47 0.4 2.95 0.602 4.42 0.186 1.37 0.366 2.74 0.539 4.12 0.194 3.25 0.194 3.25 1.74 5.93 1.8 0.0964 3.6 0.122 5.4 0.12 1.17 0.00137 2.34 0.00275 3.55 0.00417 1.3-0.0036 2.59-0.00719 3.93-0.0109 1.37-2.82e-4 2.74-1.24e-4 4.11 4.43e-4 3.73 2.88e-4 7.46-0.00561 11.2-0.0126 3.89-0.00623 7.79-0.00684 11.7-0.00803 7.38-0.00311 14.8-0.0113 22.1-0.0213 8.4-0.0112 16.8-0.0167 25.2-0.0217 17.3-0.0105 34.6-0.0281 51.8-0.0503 0.0233-27.4 0.041-54.7 0.0518-82.1 0.00516-12.7 0.0122-25.4 0.0236-38.1 0.00994-11.1 0.0164-22.1 0.0186-33.2 0.00131-5.86 0.0044-11.7 0.0116-17.6 0.00676-5.51 0.00889-11 0.00738-16.5 2.76e-4 -2.03 0.00228-4.06 0.0061-6.09 0.00493-2.76 0.00379-5.52 0.00105-8.28 0.00291-0.814 0.00583-1.63 0.00883-2.47 0.33-3.61 0.33-3.61-1.13-6.63-2.12-0.0991-4.25-0.126-6.38-0.127-0.674-0.00156-1.35-0.00312-2.04-0.00473-2.27-0.00401-4.55-8.2e-4 -6.82 0.00232-1.62-0.00135-3.25-0.00313-4.87-0.00531-4.42-0.00458-8.85-0.00278-13.3 3.79e-4 -4.62 0.00252-9.24 1.86e-4 -13.9-0.00139-7.76-0.00182-15.5 5.85e-4 -23.3 0.00534-8.98 0.00544-18 0.00368-26.9-0.00183-7.7-0.00453-15.4-0.00518-23.1-0.00256-4.6 0.00156-9.21 0.00176-13.8-0.00154-4.33-0.00288-8.65-9.04e-4 -13 0.00489-1.59 0.00133-3.19 9.33e-4 -4.78-0.00126-2.17-0.00271-4.33 6.68e-4 -6.5 0.00568-1.82 5.66e-4 -1.82 5.66e-4 -3.68 0.00114-2.61-0.181-2.61-0.181-3.7 1.13zm260 0c-0.0979 2.71-0.13 5.39-0.12 8.09-8.54e-4 0.858-0.00171 1.72-0.00259 2.6-0.00166 2.9 0.00387 5.8 0.00932 8.7 2.82e-4 2.07 1.24e-4 4.14-4.43e-4 6.21-2.88e-4 5.64 0.00561 11.3 0.0126 16.9 0.00623 5.88 0.00684 11.8 0.00803 17.6 0.00311 11.1 0.0113 22.3 0.0213 33.4 0.0132 15.1 0.0187 30.1 0.0245 45.2 0.00942 23.7 0.0293 47.5 0.0475 71.2h139c1.76-9.4 3.49-18.7 4.71-28.1 0.0919-0.708 0.184-1.42 0.279-2.14 0.0951-0.733 0.19-1.47 0.288-2.22 0.209-1.59 0.419-3.17 0.629-4.76 0.565-4.28 1.12-8.55 1.68-12.8 0.592-4.53 1.19-9.05 1.78-13.6 1.55-11.8 3.09-23.6 4.63-35.3 0.135-1.03 0.27-2.07 0.409-3.13 0.971-7.44 1.94-14.9 2.91-22.3 0.136-1.05 0.273-2.09 0.413-3.17 1.34-10.2 2.67-20.5 4-30.7 0.494-3.8 0.989-7.61 1.48-11.4 0.228-1.76 0.456-3.51 0.684-5.27 0.314-2.42 0.629-4.85 0.945-7.27 0.0976-0.752 0.195-1.5 0.296-2.28 0.763-5.83 1.61-11.6 2.51-17.4 0.356-3.03 0.376-5.95 0.352-9-21.6-0.0233-43.3-0.041-64.9-0.0518-10-0.00516-20.1-0.0122-30.1-0.0236-8.75-0.00995-17.5-0.0164-26.2-0.0186-4.64-0.00131-9.27-0.00439-13.9-0.0116-4.36-0.00676-8.71-0.00889-13.1-0.00738-1.6-2.76e-4 -3.21-0.00228-4.81-0.0061-2.18-0.00493-4.36-0.00379-6.54-0.00105-1.83-0.00138-1.83-0.00138-3.71-0.00279-2.63-0.187-2.63-0.187-3.72 1.12zm262-1c-1.51 3.76-2.32 6.15-2.83 10-0.135 0.983-0.269 1.97-0.408 2.98-0.139 1.07-0.278 2.14-0.422 3.24-0.153 1.13-0.306 2.27-0.463 3.43-0.506 3.76-1 7.53-1.5 11.3-0.265 1.98-0.53 3.97-0.796 5.95-2.94 21.9-5.76 43.9-8.57 65.8-1.69 13.1-3.4 26.3-5.19 39.4-0.09 0.663-0.18 1.33-0.273 2.01-0.944 6.94-1.89 13.9-2.85 20.8-1.56 11.4-3.08 22.8-4.49 34.2-0.137 1.08-0.275 2.16-0.416 3.27-0.119 0.984-0.239 1.97-0.362 2.98-0.161 1.3-0.161 1.3-0.326 2.63-0.0341 0.652-0.0682 1.3-0.103 1.98 1.6 1.6 3.28 1.13 5.5 1.14 1.46 0.00857 1.46 0.00857 2.95 0.0173 1.08 0.00112 2.15 0.00224 3.26 0.00339 1.69 0.00745 1.69 0.00745 3.41 0.015 3.75 0.0147 7.5 0.0214 11.2 0.0269 2.6 0.00575 5.2 0.0115 7.8 0.0173 4.76 0.00918 9.53 0.0155 14.3 0.0185 7 0.00447 14 0.022 21 0.051 6.07 0.0243 12.1 0.0319 18.2 0.0337 2.58 0.00302 5.15 0.011 7.73 0.0242 3.61 0.0171 7.23 0.0152 10.8 0.00869 1.59 0.0138 1.59 0.0138 3.21 0.0279 7.51-0.042 15.9-0.773 21.5-6.38v-2h2c4.03-7.1 5.86-14.4 7.75-22.3 0.346-1.42 0.693-2.84 1.04-4.26 3.73-15.3 7.25-30.7 10.7-46 0.908-3.99 1.82-7.97 2.73-12 1.13-4.93 2.25-9.85 3.38-14.8 3.53-15.4 7.08-30.9 10.6-46.3 0.785-3.4 1.57-6.81 2.35-10.2 0.444-1.93 0.888-3.85 1.33-5.78 0.56-2.43 1.12-4.86 1.68-7.29 1.27-5.5 2.56-11 3.91-16.5 0.241-0.98 0.481-1.96 0.729-2.97 0.446-1.81 0.899-3.61 1.36-5.42 1.2-4.63 1.2-4.63 0.346-9.24h-152zm-659 527c-11.2 13.5-18.2 31.7-17.5 49.4 2.23 20.4 10.6 39.3 26.7 52.6 16.8 12.3 36.1 17.7 56.7 14.7 18.9-3.48 35.6-14.4 46.8-29.9 10.8-16.3 14.4-35 11-54.1-4.09-18.6-14.2-34.8-30.2-45.4-12.5-7.53-24.8-11.8-39.4-11.7-1.58 0.0124-1.58 0.0124-3.18 0.0251-20.1 0.435-37.2 9.62-50.8 24.3zm591 1.95c-12.1 15.2-17.3 33.9-15.5 53.1 2.61 18.6 12.1 34.9 26.4 47.1 16.4 12.2 35.4 17.2 55.7 14.6 17.5-2.94 33.6-12.5 44.6-26.4 12.3-17.4 17.6-36.6 14-57.9-4.29-18.5-15.1-35.2-31.1-45.6-32.4-19.5-69.4-13.1-94.2 15z" fill="#ffffff"/>
</svg>
